<svg id="visual" viewBox="0 0 900 600" width="900" height="600" xmlns="http://www.w3.org/2000/svg" xmlns:xlink="http://www.w3.org/1999/xlink" version="1.1">
    <g transform="translate(447.07307538464295 333.9024830612539)">
        <path d="M141.8 -233.1C175.4 -199 188.7 -145.6 203.6 -97.5C218.4 -49.4 234.9 -6.6 227.2 31.2C219.5 69.1 187.6 102 156.4 132.6C125.3 163.2 94.9 191.4 58.6 204.3C22.3 217.2 -20 214.6 -60.6 203.9C-101.2 193.1 -140.2 174.2 -160.7 143.3C-181.3 112.4 -183.4 69.5 -195 24.8C-206.5 -20 -227.4 -66.7 -222.6 -111.8C-217.8 -156.9 -187.3 -200.4 -145.9 -231C-104.5 -261.6 -52.3 -279.3 0.9 -280.7C54.1 -282.1 108.1 -267.3 141.8 -233.1" fill="#0040ff"></path>
    </g>
</svg>