<svg id="visual" viewBox="0 0 900 600" width="900" height="600" xmlns="http://www.w3.org/2000/svg" xmlns:xlink="http://www.w3.org/1999/xlink" version="1.1">
    <g transform="translate(415.77290777573046 300.45408431283556)">
        <path d="M106.3 -161.2C129.3 -150.6 133.8 -106.9 162.5 -67.4C191.2 -27.9 244.1 7.4 257.2 49.3C270.3 91.1 243.6 139.5 201 155.9C158.4 172.3 99.9 156.7 56.8 149C13.7 141.4 -14 141.7 -50.4 143.7C-86.7 145.7 -131.8 149.5 -160 130.9C-188.2 112.3 -199.5 71.3 -187.1 38C-174.7 4.6 -138.5 -21.1 -118.8 -50.1C-99 -79.1 -95.7 -111.5 -78.7 -124.9C-61.6 -138.2 -30.8 -132.6 5.4 -141C41.6 -149.4 83.3 -171.9 106.3 -161.2" fill="#0040ff"></path>
    </g>
</svg>